<svg width="16" height="16" viewBox="0 0 16 16" fill="none" xmlns="http://www.w3.org/2000/svg">
<path d="M8.00024 0.650604C8.09297 0.650661 8.18173 0.687579 8.24731 0.753143V0.752167L15.2473 7.75217C15.2962 7.80111 15.3295 7.86397 15.343 7.93185C15.3565 7.99969 15.3499 8.0701 15.3235 8.134C15.297 8.19792 15.2521 8.25277 15.1946 8.29123C15.1371 8.32962 15.0693 8.34974 15.0002 8.34982H13.3499V15.0002C13.3498 15.093 13.3129 15.1817 13.2473 15.2473C13.1817 15.3129 13.093 15.3498 13.0002 15.3498H11.0002C10.9074 15.3498 10.8178 15.3129 10.7522 15.2473C10.6868 15.1817 10.6497 15.0928 10.6497 15.0002V12.0002C10.6497 11.5627 10.4765 11.1426 10.1672 10.8332C9.85785 10.5238 9.43778 10.3499 9.00024 10.3498H7.00024C6.56264 10.3498 6.14269 10.5238 5.83325 10.8332C5.52382 11.1427 5.34985 11.5626 5.34985 12.0002V15.0002C5.3498 15.093 5.3129 15.1817 5.24731 15.2473C5.18173 15.3129 5.09299 15.3498 5.00024 15.3498H3.00024C2.90742 15.3498 2.81783 15.3129 2.7522 15.2473C2.68678 15.1817 2.64971 15.0928 2.64966 15.0002V8.34982H1.00024L0.948486 8.34592C0.897731 8.33832 0.848947 8.31995 0.805908 8.29123C0.762767 8.2624 0.726921 8.22403 0.700439 8.1799L0.677002 8.134C0.657095 8.08594 0.648075 8.03417 0.650635 7.98264L0.656494 7.93185C0.669993 7.86397 0.704241 7.80111 0.753174 7.75217L0.752197 7.75119L7.75122 0.752167L7.7522 0.753143C7.80151 0.703849 7.86449 0.670839 7.93188 0.65744L8.00024 0.650604Z" stroke="black" stroke-opacity="0.4" stroke-width="1.3"/>
</svg>
