<svg width="17" height="17" viewBox="0 0 17 17" fill="none" xmlns="http://www.w3.org/2000/svg">
<path fill-rule="evenodd" clip-rule="evenodd" d="M7 1.5C5.54131 1.5 4.14236 2.07946 3.11091 3.11091C2.07946 4.14236 1.5 5.54131 1.5 7C1.5 8.45869 2.07946 9.85764 3.11091 10.8891C4.14236 11.9205 5.54131 12.5 7 12.5C8.45869 12.5 9.85764 11.9205 10.8891 10.8891C11.9205 9.85764 12.5 8.45869 12.5 7C12.5 5.54131 11.9205 4.14236 10.8891 3.11091C9.85764 2.07946 8.45869 1.5 7 1.5ZM1.61595e-08 7C9.44369e-05 5.88067 0.268612 4.77768 0.783029 3.78356C1.29745 2.78944 2.04276 1.93318 2.95645 1.28659C3.87015 0.640014 4.92557 0.221972 6.0342 0.0675356C7.14282 -0.0869005 8.27232 0.0267729 9.32794 0.39902C10.3836 0.771268 11.3345 1.39123 12.101 2.20691C12.8676 3.02259 13.4273 4.0102 13.7333 5.08689C14.0393 6.16358 14.0827 7.29795 13.8597 8.39485C13.6368 9.49176 13.154 10.5192 12.452 11.391L15.78 14.72C15.8537 14.7887 15.9128 14.8715 15.9538 14.9635C15.9948 15.0555 16.0168 15.1548 16.0186 15.2555C16.0204 15.3562 16.0018 15.4562 15.9641 15.5496C15.9264 15.643 15.8703 15.7278 15.799 15.799C15.7278 15.8703 15.643 15.9264 15.5496 15.9641C15.4562 16.0018 15.3562 16.0204 15.2555 16.0186C15.1548 16.0168 15.0555 15.9948 14.9635 15.9538C14.8715 15.9128 14.7887 15.8537 14.72 15.78L11.391 12.452C10.3625 13.2804 9.12074 13.8009 7.80901 13.9536C6.49727 14.1062 5.16912 13.8846 3.97795 13.3145C2.78677 12.7444 1.78117 11.849 1.07727 10.7316C0.373379 9.61425 -8.9698e-05 8.32058 1.61595e-08 7Z" fill="black" fill-opacity="0.4"/>
</svg>
