<svg width="16" height="16" viewBox="0 0 16 16" fill="none" xmlns="http://www.w3.org/2000/svg">
<path fill-rule="evenodd" clip-rule="evenodd" d="M0.5 3C0.5 2.33696 0.763392 1.70107 1.23223 1.23223C1.70107 0.763392 2.33696 0.5 3 0.5H4.875C5.53804 0.5 6.17393 0.763392 6.64277 1.23223C7.11161 1.70107 7.375 2.33696 7.375 3V4.875C7.375 5.53804 7.11161 6.17393 6.64277 6.64277C6.17393 7.11161 5.53804 7.375 4.875 7.375H3C2.33696 7.375 1.70107 7.11161 1.23223 6.64277C0.763392 6.17393 0.5 5.53804 0.5 4.875V3ZM8.625 3C8.625 2.33696 8.88839 1.70107 9.35723 1.23223C9.82607 0.763392 10.462 0.5 11.125 0.5H13C13.663 0.5 14.2989 0.763392 14.7678 1.23223C15.2366 1.70107 15.5 2.33696 15.5 3V4.875C15.5 5.53804 15.2366 6.17393 14.7678 6.64277C14.2989 7.11161 13.663 7.375 13 7.375H11.125C10.462 7.375 9.82607 7.11161 9.35723 6.64277C8.88839 6.17393 8.625 5.53804 8.625 4.875V3ZM0.5 11.125C0.5 10.462 0.763392 9.82607 1.23223 9.35723C1.70107 8.88839 2.33696 8.625 3 8.625H4.875C5.53804 8.625 6.17393 8.88839 6.64277 9.35723C7.11161 9.82607 7.375 10.462 7.375 11.125V13C7.375 13.663 7.11161 14.2989 6.64277 14.7678C6.17393 15.2366 5.53804 15.5 4.875 15.5H3C2.33696 15.5 1.70107 15.2366 1.23223 14.7678C0.763392 14.2989 0.5 13.663 0.5 13V11.125ZM8.625 11.125C8.625 10.462 8.88839 9.82607 9.35723 9.35723C9.82607 8.88839 10.462 8.625 11.125 8.625H13C13.663 8.625 14.2989 8.88839 14.7678 9.35723C15.2366 9.82607 15.5 10.462 15.5 11.125V13C15.5 13.663 15.2366 14.2989 14.7678 14.7678C14.2989 15.2366 13.663 15.5 13 15.5H11.125C10.462 15.5 9.82607 15.2366 9.35723 14.7678C8.88839 14.2989 8.625 13.663 8.625 13V11.125Z" fill="#497FFF"/>
</svg>
