<?xml version="1.0" encoding="iso-8859-1"?>
<!-- Uploaded to: SVG Repo, www.svgrepo.com, Generator: SVG Repo Mixer Tools -->
<svg fill="#000000" height="800px" width="800px" version="1.1" id="Layer_1" xmlns="http://www.w3.org/2000/svg" xmlns:xlink="http://www.w3.org/1999/xlink" 
	 viewBox="0 0 472.615 472.615" xml:space="preserve">
<g>
	<g>
		<polygon points="418.599,0 246.153,0 246.153,203.392 320.768,128.777 334.691,142.699 236.307,241.084 137.922,142.699 
			151.845,128.777 226.461,203.392 226.461,0 54.015,0 3.467,287.123 469.148,287.123 		"/>
	</g>
</g>
<g>
	<g>
		<path d="M472.418,306.818H0.197c-0.109,0-0.197,0.087-0.197,0.194v165.603h472.615V307.012
			C472.615,306.905,472.527,306.818,472.418,306.818z M110.369,424.228c-19.061,0-34.513-15.452-34.513-34.514
			c0-19.06,15.452-34.513,34.513-34.513c19.062,0,34.514,15.453,34.514,34.513C144.883,408.777,129.432,424.228,110.369,424.228z"/>
	</g>
</g>
</svg>